#Comment line ignore any data following # character 
#Hierarchical Translation and Rotation (.htr) file 
[Header]	
#Header keywords are followed by a single value 
FileType HTR		#Single word string
DataType HTRS		#Translation followed by rotation and scale data
FileVersion 1		#integer
NumSegments 25		#integer
NumFrames 4		#integer
DataFrameRate 30		#integer, data frame rate in this file
EulerRotationOrder ZYX
CalibrationUnits mm
RotationUnits Degrees
GlobalAxisofGravity Y
BoneLengthAxis Y
ScaleFactor 1.00
[SegmentNames&Hierarchy]
#CHILD	PARENT
BN_Tick_Root GLOBAL
BN_Torso BN_Tick_Root
BN_L_Leg_Front01 BN_Torso
BN_L_Leg_Rear01 BN_Torso
BN_MetalTop BN_Torso
BN_Neck BN_Torso
BN_R_Leg_Front01 BN_Torso
BN_R_Leg_Rear01 BN_Torso
BN_Sack BN_Torso
BN_L_Leg_Front02 BN_L_Leg_Front01
BN_L_Leg_Front03 BN_L_Leg_Front02
BN_L_Leg_Rear02 BN_L_Leg_Rear01
BN_L_Leg_Rear03 BN_L_Leg_Rear02
BN_Head BN_Neck
BN_Needle BN_Head
BN_R_Leg_Front02 BN_R_Leg_Front01
BN_R_Leg_Front03 BN_R_Leg_Front02
BN_R_Leg_Rear02 BN_R_Leg_Rear01
BN_R_Leg_Rear03 BN_R_Leg_Rear02
BN_SackDef01 BN_Sack
BN_SackDef02 BN_Sack
BN_SackDef03 BN_Sack
BN_SackDef04 BN_Sack
BN_SackDef05 BN_Sack
BN_SackDef06 BN_Sack
[BasePosition]
#SegmentName Tx, Ty, Tz, Rx, Ry, Rz, BoneLength
BN_Tick_Root 0.000000 0.000000 0.000000 -90.000000 0.000000 0.000000 10.000000 
BN_Torso 0.000000 0.000000 0.000000 0.000000 0.000000 0.000000 10.000000 
BN_L_Leg_Front01 0.000000 0.000000 0.000000 0.000000 0.000000 0.000000 10.000000 
BN_L_Leg_Rear01 0.000000 0.000000 0.000000 0.000000 0.000000 0.000000 10.000000 
BN_MetalTop 0.000000 0.000000 0.000000 0.000000 0.000000 0.000000 10.000000 
BN_Neck 0.000000 0.000000 0.000000 0.000000 0.000000 0.000000 10.000000 
BN_R_Leg_Front01 0.000000 0.000000 0.000000 0.000000 0.000000 0.000000 10.000000 
BN_R_Leg_Rear01 0.000000 0.000000 0.000000 0.000000 0.000000 0.000000 10.000000 
BN_Sack 0.000000 0.000000 0.000000 0.000000 0.000000 0.000000 10.000000 
BN_L_Leg_Front02 0.000000 0.000000 0.000000 0.000000 0.000000 0.000000 10.000000 
BN_L_Leg_Front03 0.000000 0.000000 0.000000 0.000000 0.000000 0.000000 10.000000 
BN_L_Leg_Rear02 0.000000 0.000000 0.000000 0.000000 0.000000 0.000000 10.000000 
BN_L_Leg_Rear03 0.000000 0.000000 0.000000 0.000000 0.000000 0.000000 10.000000 
BN_Head 0.000000 0.000000 0.000000 0.000000 0.000000 0.000000 10.000000 
BN_Needle 0.000000 0.000000 0.000000 0.000000 0.000000 0.000000 10.000000 
BN_R_Leg_Front02 0.000000 0.000000 0.000000 0.000000 0.000000 0.000000 10.000000 
BN_R_Leg_Front03 0.000000 0.000000 0.000000 0.000000 0.000000 0.000000 10.000000 
BN_R_Leg_Rear02 0.000000 0.000000 0.000000 0.000000 0.000000 0.000000 10.000000 
BN_R_Leg_Rear03 0.000000 0.000000 0.000000 0.000000 0.000000 0.000000 10.000000 
BN_SackDef01 0.000000 0.000000 0.000000 0.000000 0.000000 0.000000 10.000000 
BN_SackDef02 0.000000 0.000000 0.000000 0.000000 0.000000 0.000000 10.000000 
BN_SackDef03 0.000000 0.000000 0.000000 0.000000 0.000000 0.000000 10.000000 
BN_SackDef04 0.000000 0.000000 0.000000 0.000000 0.000000 0.000000 10.000000 
BN_SackDef05 0.000000 0.000000 0.000000 0.000000 0.000000 0.000000 10.000000 
BN_SackDef06 0.000000 0.000000 0.000000 0.000000 0.000000 0.000000 10.000000 
#Beginning of Data. Separated by tabs
#Fr	Tx	Ty	Tz	Rx	Ry	Rz	SF
[BN_Tick_Root]
13 0.000000 0.000000 0.000000 0.000000 0.000000 -0.000020 0.000000
14 0.000000 0.000000 0.000000 0.000000 0.000000 -0.000020 0.000000
15 0.000000 0.000000 0.000000 0.000000 0.000000 -0.000020 0.000000
16 0.000000 0.000000 0.000000 0.000000 0.000000 -0.000020 0.000000
[BN_Torso]
13 3.423680 115.569595 171.766647 8.603626 -3.123464 2.629730 207.055145
14 3.400748 109.075996 174.046524 6.794794 -3.057936 2.035622 205.429626
15 3.400748 109.075996 174.046524 6.744211 -3.100287 2.431022 205.429626
16 3.400748 109.075996 174.046524 6.718432 -3.187320 3.155421 205.429626
[BN_L_Leg_Front01]
13 -68.477791 10.734189 -26.804373 -33.293278 52.066097 179.560913 74.316254
14 -68.477791 10.734189 -26.804373 -36.207321 52.153877 175.867889 74.316254
15 -68.477791 10.734189 -26.804373 -36.272774 52.132763 175.266312 74.316254
16 -68.477791 10.734189 -26.804373 -36.277348 52.102898 174.255402 74.316254
[BN_L_Leg_Rear01]
13 -72.133743 -73.994843 -18.268616 68.298538 27.884054 -122.571365 104.939293
14 -72.133743 -73.994843 -18.268616 67.084000 30.564045 -122.909607 104.939293
15 -72.133743 -73.994843 -18.268616 67.079597 30.608862 -123.433212 104.939293
16 -72.133743 -73.994843 -18.268616 67.123634 30.612206 -124.371780 104.939293
[BN_MetalTop]
13 0.000008 13.737477 26.403606 94.506218 -32.384369 -98.374886 29.763546
14 0.000008 13.737477 26.403606 94.506927 -32.387966 -98.375359 29.763546
15 0.000008 13.737477 26.403606 94.507637 -32.391552 -98.375832 29.763546
16 0.000008 13.737477 26.403606 94.508362 -32.395149 -98.376312 29.763546
[BN_Neck]
13 0.000014 95.233284 10.002091 -89.999672 -65.297531 89.999657 95.757088
14 0.000014 95.233284 10.002091 -89.999672 -65.297531 89.999657 95.757088
15 0.000014 95.233284 10.002091 -89.999672 -65.297531 89.999657 95.757088
16 0.000014 95.233284 10.002091 -89.999672 -65.297531 89.999657 95.757088
[BN_R_Leg_Front01]
13 68.477768 10.734107 -26.804314 28.335880 61.431644 -10.523257 74.316193
14 68.477768 10.734107 -26.804314 32.690418 61.811985 -3.351830 74.316193
15 68.477768 10.734107 -26.804314 32.706650 61.817242 -3.896790 74.316193
16 68.477768 10.734107 -26.804314 32.585964 61.826969 -5.054980 74.316193
[BN_R_Leg_Rear01]
13 72.133751 -73.994873 -18.268644 -73.362427 40.720810 -66.814362 104.939331
14 72.133751 -73.994873 -18.268644 -72.443565 44.184643 -64.635628 104.939331
15 72.133751 -73.994873 -18.268644 -72.406281 44.190990 -65.180634 104.939331
16 72.133751 -73.994873 -18.268644 -72.376534 44.109562 -66.213852 104.939331
[BN_Sack]
13 -0.000000 -78.024918 33.657791 91.379875 -11.014523 -97.199577 84.974907
14 -0.000000 -78.024918 33.657791 91.379875 -11.014523 -97.199577 84.974907
15 -0.000000 -78.024918 33.657791 91.379875 -11.014524 -97.199570 84.974907
16 -0.000000 -78.024918 33.657791 91.379875 -11.014523 -97.199577 84.974907
[BN_L_Leg_Front02]
13 142.805023 -0.000015 -0.000104 -0.275967 1.000522 -161.455231 142.805023
14 142.805023 -0.000015 -0.000104 -0.233019 0.970587 -158.018158 142.805023
15 142.805023 -0.000015 -0.000104 -0.233745 0.973110 -157.919373 142.805023
16 142.805023 -0.000015 -0.000104 -0.234467 0.975633 -157.820587 142.805023
[BN_L_Leg_Front03]
13 124.143021 -0.000045 0.000007 0.352782 -0.198714 153.734085 124.143021
14 124.143021 -0.000045 0.000007 0.354292 -0.209353 152.131653 124.143021
15 124.143021 -0.000045 0.000007 0.354572 -0.210016 152.087479 124.143021
16 124.143021 -0.000045 0.000007 0.354852 -0.210679 152.043289 124.143021
[BN_L_Leg_Rear02]
13 139.939041 0.000075 -0.000022 0.110659 -0.209829 86.266968 139.939041
14 139.939041 0.000075 -0.000022 0.104637 -0.214747 87.678032 139.939041
15 139.939041 0.000075 -0.000022 0.106896 -0.219443 87.764992 139.939041
16 139.939041 0.000075 -0.000022 0.109147 -0.224142 87.851936 139.939041
[BN_L_Leg_Rear03]
13 142.839615 0.000179 -0.000060 0.000269 -0.002332 -103.176834 142.839615
14 142.839615 0.000179 -0.000060 0.000305 -0.002327 -104.952225 142.839615
15 142.839615 0.000179 -0.000060 0.000308 -0.002327 -105.058128 142.839615
16 142.839615 0.000179 -0.000060 0.000310 -0.002327 -105.164024 142.839615
[BN_Head]
13 57.062447 -0.000030 0.000000 -3.421401 6.465639 -12.052139 57.062447
14 57.062447 -0.000030 0.000000 -2.848418 6.329343 -14.018385 57.062447
15 57.062447 -0.000030 0.000000 -3.241021 6.399876 -14.093769 57.062447
16 57.062447 -0.000030 0.000000 -3.960859 6.535171 -14.157412 57.062447
[BN_Needle]
13 47.340698 435.255096 -0.000098 0.000003 0.000030 87.896805 437.822052
14 47.169285 430.587250 -0.000101 0.000003 0.000030 87.896805 433.163177
15 46.997871 425.919403 -0.000105 0.000003 0.000030 87.896805 428.504547
16 46.997871 425.919403 -0.000105 0.000003 0.000030 87.896805 428.504547
[BN_R_Leg_Front02]
13 142.804947 -0.000060 0.000060 0.412644 1.084811 170.485214 142.804947
14 142.804947 -0.000060 0.000060 0.353278 1.056800 166.338272 142.804947
15 142.804947 -0.000060 0.000060 0.353000 1.055158 166.425430 142.804947
16 142.804947 -0.000060 0.000060 0.352720 1.053517 166.512589 142.804947
[BN_R_Leg_Front03]
13 124.143005 -0.000060 -0.000156 -0.354291 -0.168593 -157.633347 124.143005
14 124.143005 -0.000060 -0.000156 -0.351265 -0.184619 -155.896378 124.143005
15 124.143005 -0.000060 -0.000156 -0.352416 -0.184474 -155.933044 124.143005
16 124.143005 -0.000060 -0.000156 -0.353566 -0.184329 -155.969696 124.143005
[BN_R_Leg_Rear02]
13 139.939011 -0.000149 0.000015 0.002701 -0.266051 -120.087387 139.939011
14 139.939011 -0.000149 0.000015 0.008962 -0.261664 -121.747360 139.939011
15 139.939011 -0.000149 0.000015 0.006239 -0.265992 -121.611427 139.939011
16 139.939011 -0.000149 0.000015 0.007001 -0.263846 -121.418625 139.939011
[BN_R_Leg_Rear03]
13 142.839417 0.000075 0.000119 0.002148 -0.000946 137.554947 142.839417
14 142.839417 0.000075 0.000119 0.002137 -0.000970 138.809692 142.839417
15 142.839417 0.000075 0.000119 0.002139 -0.000967 138.679291 142.839417
16 142.839417 0.000075 0.000119 0.002140 -0.000965 138.548889 142.839417
[BN_SackDef01]
13 595.037903 -15.647227 102.883835 -128.408218 -44.374973 -11.740845 604.069519
14 595.071655 -15.648389 102.889709 -128.408218 -44.374973 -11.740845 604.103882
15 595.105408 -15.649549 102.895576 -128.408218 -44.374973 -11.740845 604.138123
16 595.139221 -15.650710 102.901436 -128.408218 -44.374973 -11.740845 604.172424
[BN_SackDef02]
13 232.437012 -210.156128 117.734818 32.077126 -27.375721 -88.781525 334.744751
14 232.458649 -210.190308 117.751465 32.077126 -27.375721 -88.781525 334.787109
15 232.480270 -210.224503 117.768112 32.077126 -27.375721 -88.781525 334.829437
16 232.501907 -210.258698 117.784752 32.077126 -27.375721 -88.781525 334.871796
[BN_SackDef03]
13 595.037842 -15.647214 -102.883980 18.144459 44.375008 -11.740894 604.069458
14 595.071594 -15.648373 -102.889839 18.144459 44.375008 -11.740894 604.103821
15 595.105347 -15.649531 -102.895691 18.144459 44.375008 -11.740894 604.138062
16 595.139160 -15.650690 -102.901550 18.144459 44.375008 -11.740894 604.172424
[BN_SackDef04]
13 232.436920 -210.156067 -117.734695 146.059982 27.375723 -88.781555 334.744598
14 232.458557 -210.190247 -117.751335 146.059982 27.375723 -88.781555 334.786957
15 232.480194 -210.224457 -117.767982 146.059982 27.375723 -88.781555 334.829285
16 232.501816 -210.258636 -117.784630 146.059982 27.375723 -88.781555 334.871643
[BN_SackDef05]
13 287.920959 261.707153 -163.265533 0.155741 51.314110 90.605110 421.953491
14 287.937500 261.728271 -163.275253 0.155741 51.314110 90.605110 421.981628
15 287.954041 261.749329 -163.284973 0.155741 51.314110 90.605110 422.009735
16 287.970581 261.770386 -163.294708 0.155741 51.314110 90.605110 422.037872
[BN_SackDef06]
13 287.921082 261.707336 163.265213 152.058487 -51.314072 90.605019 421.953552
14 287.937622 261.728394 163.274933 152.058487 -51.314072 90.605019 421.981659
15 287.954163 261.749512 163.284653 152.058487 -51.314072 90.605019 422.009796
16 287.970703 261.770569 163.294388 152.058487 -51.314072 90.605019 422.037964
